<svg xmlns="http://www.w3.org/2000/svg" viewBox="0 0 100 100" width="100" height="100">
  <defs>
    <linearGradient id="saffronGrad" x1="0%" y1="0%" x2="100%" y2="100%">
      <stop offset="0%" stop-color="#E8873A" />
      <stop offset="100%" stop-color="#7B3F6E" />
    </linearGradient>
  </defs>
  <!-- Beautiful abstract traditional oil lamp (Diya) / Lotus shape -->
  <path d="M50 85 C20 85 10 60 10 45 C10 35 25 38 50 15 C75 38 90 35 90 45 C90 60 80 85 50 85 Z" fill="url(#saffronGrad)" />
  <path d="M50 78 C28 78 20 58 20 48 C28 48 38 40 50 25 C62 40 72 48 80 48 C80 58 72 78 50 78 Z" fill="#FAF7F2" opacity="0.15" />
  <!-- Flame -->
  <path d="M50 20 C46 30 44 38 50 48 C56 38 54 30 50 20 Z" fill="#FFC107" />
  <circle cx="50" cy="35" r="3" fill="#FFFFFF" opacity="0.8" />
</svg>
